<svg width="98" height="38" viewBox="0 0 98 38" fill="none" xmlns="http://www.w3.org/2000/svg">
<mask id="mask0_15_34876" style="mask-type:luminance" maskUnits="userSpaceOnUse" x="0" y="0" width="98" height="38">
<path d="M97.0436 0H0V37.2001H97.0436V0Z" fill="white"/>
</mask>
<g mask="url(#mask0_15_34876)">
<path d="M77.9143 21.5457L79.4918 21.1863C79.5517 21.1663 79.5916 21.1663 79.6515 21.1463C80.5501 20.9067 81.1092 19.9882 80.8895 19.0897L80.8696 19.0697C80.8097 18.87 80.7298 18.6504 80.61 18.4906C80.4303 18.271 80.2106 18.0913 79.971 17.9315C79.6715 17.7718 79.372 17.632 79.0525 17.5122L77.3353 16.8732C76.3768 16.5138 75.3984 16.1744 74.42 15.8349C73.781 15.6153 73.2419 15.4156 72.7826 15.2558C72.7027 15.2359 72.6029 15.1959 72.523 15.176C71.9639 14.9963 71.5646 14.9364 71.2251 14.9364C71.0055 14.9364 70.7858 14.9763 70.5662 15.0562C70.3465 15.156 70.1469 15.2958 69.9871 15.4555C69.9072 15.5354 69.8274 15.6352 69.7675 15.7351C69.6277 15.9347 69.5278 16.1744 69.448 16.394C69.1285 17.3325 68.9688 18.3309 68.9688 19.3293C68.9688 20.2278 69.0087 21.386 69.5079 22.1847C69.6277 22.3843 69.7874 22.5641 69.9671 22.6839C70.3266 22.9235 70.686 22.9634 71.0454 22.9834C71.5845 23.0233 72.1237 22.8835 72.6628 22.7637L77.9143 21.5457ZM95.4461 13.1991C95.0068 12.3006 94.4477 11.4819 93.7488 10.7631C93.649 10.6832 93.5691 10.5834 93.4493 10.5235C93.3495 10.4436 93.2496 10.3837 93.1498 10.3238C93.05 10.2639 92.9302 10.2239 92.8303 10.164C92.6107 10.0842 92.3711 10.0442 92.1314 10.0442C91.9118 10.0642 91.6921 10.1241 91.4925 10.2239C91.1929 10.3837 90.8735 10.6233 90.4342 11.0227C90.3743 11.0826 90.2944 11.1425 90.2345 11.2024C89.8751 11.5418 89.4757 11.9611 89.0164 12.4404C88.2976 13.1792 87.5788 13.918 86.8599 14.6568L85.582 15.9747C85.3424 16.2143 85.1427 16.4739 84.943 16.7534C84.7833 16.993 84.6635 17.2526 84.6036 17.5322C84.5636 17.7518 84.5636 17.9715 84.6235 18.1711L84.6435 18.1911C84.8432 19.1096 85.7417 19.6887 86.6602 19.509C86.7201 19.489 86.7801 19.489 86.82 19.469L93.609 17.8916C94.1482 17.7718 94.6873 17.652 95.1665 17.3724C95.486 17.1927 95.8055 16.993 96.0052 16.6136C96.125 16.414 96.1849 16.1744 96.2049 15.9547C96.3047 15.0562 95.8255 14.0178 95.4461 13.1991ZM83.2857 16.0545C83.7849 15.4355 83.7849 14.517 83.8248 13.7582C83.9646 11.2423 84.1243 8.72636 84.2441 6.19044C84.304 5.25195 84.4039 4.2935 84.344 3.33504C84.2841 2.53633 84.2841 1.63778 83.7849 0.978837C82.9063 -0.159329 81.0093 -0.0594885 79.7314 0.100254C79.3321 0.160158 78.9327 0.220061 78.5533 0.3199C78.154 0.419739 77.7746 0.519578 77.3952 0.639385C76.1572 1.03874 74.42 1.77755 74.1205 3.19527C73.9607 4.01395 74.3401 4.83263 74.6596 5.55147C75.019 6.45002 75.5382 7.24874 75.9974 8.08739C77.1955 10.3238 78.4335 12.5202 79.6715 14.7167C80.0509 15.3756 80.4503 16.1943 81.1491 16.5338C81.209 16.5537 81.249 16.5737 81.2889 16.5937C81.6084 16.7135 81.9678 16.7335 82.2873 16.6536L82.3472 16.6336C82.6467 16.5537 82.9263 16.374 83.1459 16.1544C83.2058 16.1344 83.2458 16.0945 83.2857 16.0545ZM82.6867 22.8037C82.2873 22.2446 81.5884 22.005 80.9295 22.2246C80.8496 22.2446 80.7897 22.2845 80.7098 22.3045C80.59 22.3644 80.4902 22.4243 80.4103 22.5042C80.1308 22.7038 79.8912 22.9834 79.6715 23.2629C79.6116 23.3228 79.5717 23.4227 79.4918 23.4826L78.3936 24.9802C77.7746 25.8188 77.1556 26.6575 76.5565 27.5161C76.1572 28.0752 75.8177 28.5344 75.5382 28.9538C75.4783 29.0336 75.4383 29.1335 75.3784 29.1934C75.0589 29.6926 74.8792 30.052 74.7794 30.3715C74.7195 30.5911 74.6796 30.8307 74.7195 31.0504C74.7395 31.29 74.8193 31.5096 74.9391 31.7093C74.999 31.8092 75.0789 31.909 75.1588 32.0088C75.3185 32.1886 75.4982 32.3683 75.7179 32.508C76.4767 33.0272 77.2953 33.4066 78.1739 33.7061C78.8928 33.9457 79.6515 34.0855 80.4103 34.1254C80.5501 34.1254 80.6699 34.1254 80.8097 34.1254C80.9295 34.1055 81.0493 34.1055 81.1691 34.0655C81.2889 34.0456 81.4087 34.0056 81.5085 33.9657C81.9478 33.8059 82.3073 33.4665 82.467 33.0272C82.5868 32.7077 82.6667 32.3084 82.7266 31.7093C82.7266 31.6295 82.7466 31.5296 82.7466 31.4298C82.7865 30.9306 82.8065 30.3515 82.8464 29.6726C82.9063 28.6343 82.9462 27.596 82.9662 26.5377L83.0261 24.6806C83.0461 24.2414 83.0261 23.7821 82.9063 23.3428C82.8863 23.1631 82.8065 22.9834 82.6867 22.8037ZM95.0268 25.699C94.8071 25.4394 94.4677 25.1998 93.9685 24.9003C93.8886 24.8604 93.8087 24.8005 93.7289 24.7605C93.3095 24.5009 92.7904 24.2414 92.1913 23.9219C91.2728 23.4227 90.3543 22.9235 89.4358 22.4443L87.7984 21.5856C87.7185 21.5657 87.6187 21.5058 87.5388 21.4658C87.2193 21.3061 86.8799 21.1863 86.5404 21.1064C86.4206 21.0864 86.3008 21.0665 86.181 21.0665C86.1011 21.0665 86.0213 21.0665 85.9414 21.0864C85.2625 21.1863 84.7433 21.7054 84.6235 22.3843C84.6036 22.584 84.6036 22.8037 84.6435 23.0034C84.7234 23.4426 84.923 23.862 85.1227 24.2414L86.0013 25.8787C86.4805 26.8172 86.9797 27.7158 87.4789 28.6343C87.7984 29.2333 88.078 29.7325 88.3375 30.1718C88.3775 30.2517 88.4374 30.3315 88.4773 30.4114C88.7768 30.9306 89.0364 31.2501 89.296 31.4697C89.4557 31.6295 89.6554 31.7493 89.8551 31.8291C90.0747 31.909 90.3144 31.929 90.554 31.909C90.6738 31.889 90.7936 31.8691 90.9134 31.8491C91.0332 31.8092 91.153 31.7892 91.2528 31.7493C91.3727 31.6894 91.4925 31.6494 91.5923 31.5895C92.2712 31.2101 92.8702 30.7509 93.4094 30.2317C94.0683 29.5927 94.6474 28.8939 95.0867 28.0752C95.1466 27.9554 95.2065 27.8356 95.2464 27.7158C95.2864 27.596 95.3263 27.4961 95.3662 27.3763C95.3862 27.2565 95.4062 27.1367 95.4261 27.0169C95.4461 26.7773 95.4261 26.5377 95.3463 26.318C95.3063 26.0584 95.1865 25.8588 95.0268 25.699Z" fill="#BFC6D6"/>
</g>
<mask id="mask1_15_34876" style="mask-type:luminance" maskUnits="userSpaceOnUse" x="0" y="0" width="98" height="38">
<path d="M97.0436 0H0V37.2001H97.0436V0Z" fill="white"/>
</mask>
<g mask="url(#mask1_15_34876)">
<path fill-rule="evenodd" clip-rule="evenodd" d="M38.6375 9.76464C38.6375 8.40682 39.7357 7.30859 41.0735 7.30859C42.3914 7.30859 43.4497 8.40683 43.5096 9.78461V28.9338C43.5096 30.2916 42.4114 31.3898 41.0735 31.3898C39.7357 31.3898 38.6375 30.2916 38.6375 28.9338V9.76464ZM36.3811 21.5856C36.3611 21.965 36.2613 22.6639 35.7821 23.183C35.2429 23.7421 34.5241 23.8619 34.1048 23.8619C32.3676 23.8819 30.6304 23.8819 28.8932 23.8819C27.156 23.8819 25.4188 23.8819 23.6816 23.9019C23.8413 24.3811 24.1408 25.0999 24.8197 25.7589C25.239 26.1582 25.6384 26.3779 25.7981 26.4777C25.9978 26.6175 26.7366 26.9969 27.6152 26.9969C28.5537 26.9969 29.3924 26.6974 30.211 26.278L30.2709 26.2381C30.85 25.9386 31.4291 25.6391 32.0481 25.5392C32.6471 25.4394 33.306 25.5592 33.7853 25.9785C34.3643 26.4777 34.584 27.1966 34.3643 27.9354C34.1247 28.774 33.4259 29.4929 32.6671 29.9321C32.2478 30.1718 31.7885 30.3914 31.3292 30.5511C30.1511 30.9705 28.9131 31.1702 27.6751 31.1302C27.3756 31.1302 27.0561 31.1302 26.7366 31.0903C26.3972 31.0503 26.0577 30.9904 25.7183 30.8906C25.1991 30.7708 24.6799 30.611 24.2007 30.3714C23.7215 30.1518 23.2622 29.8922 22.8229 29.5927C22.3836 29.2732 21.9843 28.9338 21.6049 28.5344C21.2255 28.155 20.906 27.7157 20.6065 27.2764C19.5881 25.7189 19.1089 23.802 19.1888 21.925C19.2687 20.108 19.8677 18.2709 20.9859 16.7933C21.1057 16.6136 21.2255 16.4539 21.3653 16.2941C21.4252 16.2342 21.4851 16.1743 21.525 16.0944C22.8828 14.4371 24.6999 13.9179 25.4587 13.6983L25.4986 13.6783C27.0162 13.239 28.6336 13.239 30.1511 13.6783C30.5106 13.7782 32.5473 14.3972 34.1247 16.0944C34.2046 16.1743 34.4043 16.4139 34.6838 16.7733C35.3627 17.6919 35.8619 18.7302 36.1415 19.8284C36.2813 20.3276 36.3811 20.8867 36.3811 21.5856ZM25.239 18.4506C24.5002 19.0696 23.9611 19.9083 23.7614 20.8468H32.0281C31.8085 19.9083 31.2893 19.0497 30.5305 18.4506C29.7717 17.8516 28.8532 17.5122 27.8748 17.5122C27.5353 17.5122 26.3572 17.5721 25.239 18.4506ZM56.7083 13.4188C54.5319 13.4188 52.575 14.3772 51.1573 15.9547V15.9147C51.0774 12.6999 46.2252 12.8197 46.3251 16.0545V34.345C46.3251 35.6829 47.4033 36.7811 48.7612 36.7811C50.099 36.7811 51.1773 35.7028 51.1773 34.345V28.6342C52.575 30.1917 54.5319 31.1901 56.7083 31.1901C61.0414 31.1901 64.5757 27.2565 64.5757 22.3444C64.5757 17.4123 61.0414 13.4188 56.7083 13.4188ZM55.6301 27.1766C53.174 27.1766 51.1573 25.0201 51.1573 22.3444C51.1573 19.6487 53.1541 17.4922 55.6301 17.4922C58.1061 17.4922 60.1029 19.6487 60.1029 22.3444C60.1029 25.04 58.1061 27.1766 55.6301 27.1766ZM15.5946 23.5824L14.7959 25.3395C14.4364 26.0983 14.077 26.8771 13.7376 27.6558C13.6178 27.8954 13.5179 28.135 13.4181 28.3747C11.9005 31.7492 10.1034 35.7628 6.16977 36.6014C4.27282 37.0207 1.39745 36.4417 0.339159 34.6645C-0.719136 32.8474 0.858323 30.7708 2.87507 31.25C3.19456 31.3099 3.51404 31.4697 3.83353 31.6294C4.37266 31.889 4.89182 32.1685 5.49086 32.0487C6.02999 31.9489 6.38941 31.5495 6.80874 31.0503C7.268 30.4912 7.60745 29.8523 7.78716 29.1534C7.76719 29.1334 7.76719 29.1135 7.76719 29.0935C7.74722 29.0735 7.74722 29.0536 7.72726 29.0336C7.22806 28.1151 6.80874 27.2764 6.44932 26.5975C6.2097 26.1582 6.01002 25.7589 5.83031 25.4394L5.01163 23.8819C4.4126 22.7238 4.31276 22.544 4.03321 22.0449C3.45414 20.9267 2.83514 19.8284 2.1762 18.7502C1.47733 17.5721 0.758484 16.2542 1.33755 14.8564C1.79681 13.7382 3.03482 13.1592 4.17298 13.5386C5.39102 13.898 5.93015 15.0761 6.44932 16.1543C6.52919 16.354 6.62902 16.5537 6.72886 16.7334C7.54754 18.3508 8.34626 19.9682 9.14497 21.5856C9.20488 21.7453 9.32468 21.965 9.46446 22.2246C9.58426 22.4642 9.72404 22.7437 9.86381 23.0432C9.94369 23.203 10.0036 23.3428 10.0835 23.4825C10.1633 23.6423 10.2432 23.802 10.2831 23.9218C10.6625 23.0033 11.0219 22.0848 11.4013 21.1663C11.7807 20.2477 12.1601 19.3292 12.5195 18.4107C12.5195 18.3508 12.6194 18.1711 12.7392 17.8716C12.9389 17.4323 13.1385 16.993 13.3182 16.5537C13.8174 15.3556 14.3965 13.9179 15.7144 13.5186C16.6728 13.239 17.6912 13.5985 18.2703 14.4171C18.5698 14.8165 18.6696 15.2758 18.6896 15.735C18.7096 16.7534 18.2104 17.8316 17.791 18.7502C17.6912 18.9698 17.5914 19.1895 17.5115 19.4091L17.4516 19.5289C17.3318 19.7885 17.0123 20.4874 16.4732 21.6655C16.2735 22.0848 16.0938 22.5041 15.8941 22.9234C15.8142 23.1231 15.6944 23.3627 15.5946 23.5824Z" fill="#BFC6D6"/>
</g>
</svg>
