<svg width="585" height="479" viewBox="0 0 585 479" fill="none" xmlns="http://www.w3.org/2000/svg">
<rect width="584.106" height="478.684" fill="#3D65FF"/>
<mask id="mask0_51_29939" style="mask-type:alpha" maskUnits="userSpaceOnUse" x="0" y="0" width="585" height="479">
<rect width="584.106" height="478.684" fill="#3D65FF"/>
</mask>
<g mask="url(#mask0_51_29939)">
<path d="M143.963 676.043C133.506 666.147 126.339 653.81 119.058 641.529C110.073 626.449 102.735 610.385 94.4418 594.912C89.5435 585.732 83.8976 576.948 78.1304 568.33C73.8534 561.874 68.727 555.645 63.814 549.582C56.7359 540.546 48.7001 532.317 39.8323 525.023C35.465 521.544 31.9073 517.086 27.7499 513.356C20.4455 506.723 12.9053 500.314 5.45341 493.822L4.42951 492.743C-3.91844 484.892 -12.1189 476.902 -20.7029 469.275C-28.6842 462.568 -36.1368 455.268 -43.0038 447.433C-51.3858 437.301 -59.8859 427.281 -67.1204 416.113C-72.7178 407.641 -77.8416 398.849 -82.4706 389.776C-93.8031 368.271 -100.405 344.379 -101.865 319.59C-102.223 309.741 -101.728 299.824 -100.385 289.951C-99.6238 283.603 -97.4065 277.608 -96.6521 271.371C-96.3515 269.088 -93.8694 267.626 -93.7851 265.706C-93.5068 258.554 -88.0391 253.207 -86.3961 246.547C-86.2834 245.763 -85.9386 245.014 -85.4065 244.399C-82.8039 241.299 -80.6997 237.828 -79.177 234.123C-70.834 220.24 -60.0017 207.907 -47.2638 197.788C-39.8602 191.559 -31.8109 186.16 -23.2771 181.701C-13.2888 176.986 -2.88061 173.349 7.76038 170.856C24.9033 166.46 42.5915 166.172 59.3382 170.013C73.3125 172.963 86.6825 177.863 99.0644 184.572C109.408 190.255 119.276 196.704 128.593 203.868C132.593 206.959 136.409 210.33 140.304 213.784C150.59 222.484 160.346 231.777 169.528 241.622C175.488 247.901 181.447 254.181 187.557 260.264C194.284 266.761 201.277 273.006 208.623 278.915C212.777 282.229 216.78 285.737 220.931 289.106C233.026 298.784 245.872 307.521 259.368 315.247C276.146 324.969 293.564 333.634 311.527 341.193C323.58 346.211 335.783 351.033 347.875 355.856C365.785 362.932 382.587 372.279 397.89 383.679C399.869 385.29 401.741 387.025 403.495 388.875C405.779 391.25 408.25 393.439 410.888 395.423C412.985 396.9 414.825 398.699 416.345 400.76C424.714 410.555 432.045 421.208 438.231 432.566C440.96 438.336 443.577 444.107 445.791 450.103C450.508 462.874 453.766 476.214 455.507 489.884C457.19 503.198 457.79 516.694 457.302 530.242C456.892 543.597 454.867 556.958 451.272 570.036C449.678 576.806 447.625 583.329 445.9 589.961C444.095 597.387 441.898 604.737 439.319 611.98C436.034 621.295 431.656 630.252 426.28 638.657C420.751 646.953 413.647 654.063 407.456 661.779C402.69 667.985 397.078 673.417 392.207 679.511C385.024 688.708 376.11 696.452 366.02 702.262C355.602 708.467 344.626 713.598 333.273 717.568C324.354 720.353 315.287 722.51 306.142 724.021C293.094 726.524 279.92 727.852 266.783 727.989C252.59 728.015 238.601 725.993 225.248 721.983C217.178 719.389 208.892 717.158 201.173 713.81C186.896 708.098 173.423 700.741 161.014 691.881C154.983 686.981 149.288 681.692 143.963 676.043V676.043Z" fill="#AAEAFF"/>
<path d="M-277.093 15.6489C-262.017 5.90674 -245.11 0.571411 -228.234 -4.91059C-207.496 -11.6932 -186.122 -16.329 -165.141 -22.2142C-152.701 -25.6808 -140.488 -30.1097 -128.434 -34.7197C-119.417 -38.1226 -110.396 -42.5658 -101.64 -46.8014C-88.6697 -52.831 -76.3457 -60.1659 -64.861 -68.6917C-59.3392 -72.9178 -52.9192 -75.9687 -47.1669 -79.8908C-36.968 -86.7626 -26.9583 -93.9622 -16.8776 -101.039L-15.2715 -101.966C-3.29555 -109.755 8.79862 -117.338 20.5853 -125.455C31.0909 -133.094 42.1267 -139.977 53.6089 -146.051C68.2958 -153.328 82.8883 -160.77 98.4331 -166.466C110.261 -170.914 122.314 -174.736 134.542 -177.916C163.639 -185.871 194.042 -187.764 223.853 -183.475C235.626 -181.515 247.204 -178.547 258.459 -174.606C265.728 -172.192 272.112 -168.174 279.251 -165.794C281.857 -164.894 282.789 -161.663 285.035 -161.101C293.41 -159.053 297.982 -151.421 305.336 -147.908C306.229 -147.588 307.004 -147.007 307.561 -146.242C310.394 -142.475 313.826 -139.197 317.722 -136.536C331.472 -123.509 342.588 -107.969 350.469 -90.7526C355.463 -80.6619 359.266 -70.0228 361.8 -59.0484C364.17 -46.3254 365.129 -33.3752 364.659 -20.431C364.35 0.513698 359.006 21.0999 349.075 39.5975C341.091 55.0947 330.993 69.4202 319.071 82.163C309.019 92.7887 298.213 102.679 286.739 111.757C281.794 115.65 276.577 119.263 271.236 122.948C257.632 132.779 243.495 141.853 228.891 150.128C219.543 155.525 210.194 160.922 201.029 166.542C191.176 172.777 181.536 179.38 172.18 186.476C166.923 190.494 161.483 194.291 156.161 198.292C140.818 209.985 126.346 222.778 112.863 236.567C95.9613 253.682 80.1062 271.795 65.3841 290.806C55.5699 303.575 45.9384 316.567 36.3425 329.428C22.2091 348.494 5.74389 365.728 -12.6688 380.728C-15.2123 382.634 -17.8679 384.386 -20.6212 385.974C-24.1669 388.051 -27.5522 390.389 -30.749 392.969C-33.1706 395.045 -35.8917 396.745 -38.8198 398.011C-53.1042 405.355 -68.0701 411.287 -83.5027 415.723C-91.2098 417.495 -98.8822 419.138 -106.691 420.259C-123.324 422.649 -140.162 423.209 -156.901 421.929C-173.201 420.669 -189.369 418.109 -205.248 414.273C-220.924 410.575 -236.088 405.002 -250.411 397.676C-257.913 394.194 -264.973 390.239 -272.269 386.638C-280.478 382.752 -288.472 378.43 -296.216 373.692C-306.185 367.633 -315.38 360.394 -323.6 352.13C-331.643 343.715 -337.775 333.76 -344.918 324.716C-350.731 317.691 -355.356 309.871 -361.004 302.751C-369.581 292.2 -375.881 279.992 -379.514 266.886C-383.509 253.306 -386.053 239.336 -387.103 225.209C-387.533 214.192 -387.171 203.156 -386.02 192.184C-384.787 176.445 -382.123 160.844 -378.063 145.573C-373.531 129.105 -366.639 113.366 -357.6 98.846C-351.936 90.1119 -346.631 81.0393 -340.188 72.8936C-328.836 57.7121 -315.797 43.8597 -301.321 31.6036C-293.582 25.7909 -285.49 20.4624 -277.093 15.6489V15.6489Z" fill="#0CB9F1"/>
</g>
</svg>
