<svg width="82" height="56" viewBox="0 0 82 56" fill="none" xmlns="http://www.w3.org/2000/svg">
<path d="M5.2882 21.375C11.6632 17.75 25.3382 8.8 29.0382 2C22.4965 20.3333 8.1882 56.35 3.2882 53.75C-2.8368 50.5 14.2882 27.25 25.0382 20.75C35.7882 14.25 24.4131 27.125 23.0381 28.75C21.6631 30.375 34.5381 20.375 35.4131 23.125C36.2881 25.875 40.5381 20.125 42.6631 20.75C44.7881 21.375 43.2881 24.75 49.0381 22.25C54.7881 19.75 56.9131 22 60.5381 21.375C64.1631 20.75 70.5381 19.25 74.2881 20.75C77.2881 21.95 79.6214 19.8333 80.4131 18.625" stroke="#3D65FF" stroke-width="3" stroke-linecap="round" stroke-linejoin="round"/>
</svg>
