<svg width="113" height="19" viewBox="0 0 113 19" fill="none" xmlns="http://www.w3.org/2000/svg">
<g clip-path="url(#clip0_15_34886)">
<path d="M8.69357 15.6878C9.01459 15.4941 9.41651 15.4941 9.73752 15.6878L13.7611 18.1164C14.5261 18.5781 15.4699 17.8922 15.2668 17.022L14.1989 12.4454C14.1137 12.0802 14.2378 11.6979 14.5213 11.4524L18.0775 8.37168C18.7529 7.7866 18.3918 6.67719 17.5015 6.60167L12.8213 6.20474C12.448 6.17308 12.1229 5.93738 11.9767 5.59243L10.1456 1.27236C9.7975 0.451123 8.6336 0.451123 8.28551 1.27236L6.45444 5.59243C6.30823 5.93738 5.98309 6.17308 5.60977 6.20474L0.92963 6.60167C0.0392554 6.67719 -0.32179 7.7866 0.353601 8.37168L3.90984 11.4524C4.19326 11.6979 4.31736 12.0802 4.23215 12.4454L3.16427 17.022C2.96123 17.8922 3.90495 18.5781 4.66995 18.1164L8.69357 15.6878Z" fill="#FDB52A"/>
</g>
<g clip-path="url(#clip1_15_34886)">
<path d="M32.2746 15.6878C32.5956 15.4941 32.9976 15.4941 33.3186 15.6878L37.3422 18.1164C38.1072 18.5781 39.0509 17.8922 38.8479 17.022L37.78 12.4454C37.6948 12.0802 37.8189 11.6979 38.1023 11.4524L41.6586 8.37168C42.3339 7.7866 41.9729 6.67719 41.0825 6.60167L36.4024 6.20474C36.0291 6.17308 35.7039 5.93738 35.5577 5.59243L33.7266 1.27236C33.3786 0.451123 32.2147 0.451123 31.8666 1.27236L30.0355 5.59243C29.8893 5.93738 29.5641 6.17308 29.1908 6.20474L24.5107 6.60167C23.6203 6.67719 23.2593 7.7866 23.9347 8.37168L27.4909 11.4524C27.7743 11.6979 27.8984 12.0802 27.8132 12.4454L26.7453 17.022C26.5423 17.8922 27.486 18.5781 28.251 18.1164L32.2746 15.6878Z" fill="#FDB52A"/>
</g>
<g clip-path="url(#clip2_15_34886)">
<path d="M55.8557 15.6878C56.1767 15.4941 56.5786 15.4941 56.8996 15.6878L60.9233 18.1164C61.6883 18.5781 62.632 17.8922 62.4289 17.022L61.3611 12.4454C61.2758 12.0802 61.3999 11.6979 61.6834 11.4524L65.2396 8.37168C65.915 7.7866 65.5539 6.67719 64.6636 6.60167L59.9834 6.20474C59.6101 6.17308 59.285 5.93738 59.1388 5.59243L57.3077 1.27236C56.9596 0.451123 55.7957 0.451123 55.4476 1.27236L53.6165 5.59243C53.4703 5.93738 53.1452 6.17308 52.7719 6.20474L48.0917 6.60167C47.2014 6.67719 46.8403 7.7866 47.5157 8.37168L51.072 11.4524C51.3554 11.6979 51.4795 12.0802 51.3943 12.4454L50.3264 17.022C50.1233 17.8922 51.0671 18.5781 51.8321 18.1164L55.8557 15.6878Z" fill="#FDB52A"/>
</g>
<g clip-path="url(#clip3_15_34886)">
<path d="M79.4358 15.6878C79.7568 15.4941 80.1587 15.4941 80.4797 15.6878L84.5033 18.1164C85.2683 18.5781 86.2121 17.8922 86.009 17.022L84.9411 12.4454C84.8559 12.0802 84.98 11.6979 85.2634 11.4524L88.8197 8.37168C89.4951 7.7866 89.134 6.67719 88.2437 6.60167L83.5635 6.20474C83.1902 6.17308 82.8651 5.93738 82.7188 5.59243L80.8878 1.27236C80.5397 0.451123 79.3758 0.451123 79.0277 1.27236L77.1966 5.59243C77.0504 5.93738 76.7253 6.17308 76.352 6.20474L71.6718 6.60167C70.7814 6.67719 70.4204 7.7866 71.0958 8.37168L74.652 11.4524C74.9355 11.6979 75.0595 12.0802 74.9743 12.4454L73.9065 17.022C73.7034 17.8922 74.6471 18.5781 75.4121 18.1164L79.4358 15.6878Z" fill="#FDB52A"/>
</g>
<g clip-path="url(#clip4_15_34886)">
<path d="M103.017 15.6878C103.338 15.4941 103.74 15.4941 104.061 15.6878L108.084 18.1164C108.849 18.5781 109.793 17.8922 109.59 17.022L108.522 12.4454C108.437 12.0802 108.561 11.6979 108.844 11.4524L112.401 8.37168C113.076 7.7866 112.715 6.67719 111.825 6.60167L107.145 6.20474C106.771 6.17308 106.446 5.93738 106.3 5.59243L104.469 1.27236C104.121 0.451123 102.957 0.451123 102.609 1.27236L100.778 5.59243C100.631 5.93738 100.306 6.17308 99.933 6.20474L95.2529 6.60167C94.3625 6.67719 94.0015 7.7866 94.6768 8.37168L98.2331 11.4524C98.5165 11.6979 98.6406 12.0802 98.5554 12.4454L97.4875 17.022C97.2845 17.8922 98.2282 18.5781 98.9932 18.1164L103.017 15.6878Z" fill="#FDB52A"/>
</g>
<defs>
<clipPath id="clip0_15_34886">
<rect width="18.432" height="18.432" fill="white"/>
</clipPath>
<clipPath id="clip1_15_34886">
<rect width="18.432" height="18.432" fill="white" transform="translate(23.5811)"/>
</clipPath>
<clipPath id="clip2_15_34886">
<rect width="18.432" height="18.432" fill="white" transform="translate(47.1621)"/>
</clipPath>
<clipPath id="clip3_15_34886">
<rect width="18.432" height="18.432" fill="white" transform="translate(70.7422)"/>
</clipPath>
<clipPath id="clip4_15_34886">
<rect width="18.432" height="18.432" fill="white" transform="translate(94.3232)"/>
</clipPath>
</defs>
</svg>
