<svg width="113" height="38" viewBox="0 0 113 38" fill="none" xmlns="http://www.w3.org/2000/svg">
<path d="M13.8872 0H14.8899C18.371 0.0764853 21.7954 1.49146 24.2549 3.99636C23.3468 4.9333 22.4197 5.832 21.5305 6.76895C20.1494 5.50694 18.4845 4.53175 16.6683 4.18757C13.9818 3.61393 11.0872 4.13021 8.83579 5.67903C6.3763 7.30435 4.71142 10.0578 4.35195 13.0025C3.95465 15.9089 4.76817 18.9684 6.64117 21.2247C8.43848 23.4236 11.1818 24.8004 14.0196 24.896C16.6683 25.0489 19.4305 24.2267 21.3603 22.3528C22.8738 21.0335 23.5738 19.0257 23.8008 17.0753C20.6602 17.0753 17.5197 17.0945 14.3791 17.0753V13.1364H27.6036C28.2847 17.3622 27.3009 22.1234 24.1224 25.1445C22.0035 27.2861 19.071 28.5481 16.0818 28.7967C13.1872 29.0835 10.198 28.529 7.62496 27.114C4.54114 25.4505 2.08166 22.6397 0.870831 19.3317C-0.264317 16.2914 -0.283236 12.8495 0.776235 9.79012C1.74111 6.99841 3.59519 4.53175 5.979 2.81083C8.26821 1.10904 11.0493 0.172092 13.8872 0Z" fill="#BFC6D6"/>
<path d="M89.7529 0.995117H93.8016V28.3003C92.4584 28.3003 91.0962 28.3194 89.7529 28.2812C89.7718 19.1986 89.7529 10.0969 89.7529 0.995117Z" fill="#BFC6D6"/>
<path d="M36.6089 10.4597C39.1062 9.98163 41.8117 10.517 43.8739 12.0276C45.7469 13.3661 47.0523 15.4694 47.4496 17.7639C47.9604 20.4218 47.3172 23.3282 45.6144 25.4315C43.7793 27.7834 40.7711 29.0454 37.8387 28.8542C35.1521 28.7013 32.5413 27.3437 30.9521 25.1256C29.1548 22.6781 28.7196 19.3128 29.7034 16.4446C30.6872 13.3661 33.4683 11.0142 36.6089 10.4597ZM37.1765 14.0927C36.1548 14.3604 35.2089 14.9531 34.5278 15.7945C32.6926 18.0125 32.8062 21.6264 34.8305 23.6915C35.9846 24.877 37.7251 25.4315 39.3333 25.1065C40.8279 24.8388 42.1333 23.8254 42.8522 22.4869C44.1009 20.2115 43.7414 17.0756 41.8306 15.2973C40.6009 14.15 38.8035 13.672 37.1765 14.0927Z" fill="#BFC6D6"/>
<path d="M56.6614 10.4593C59.5182 9.90481 62.6399 10.7079 64.7778 12.7348C68.2589 15.8898 68.6373 21.7983 65.667 25.4314C63.8696 27.7259 60.9561 28.9879 58.0804 28.8541C55.3371 28.7776 52.6317 27.4009 51.0046 25.1254C49.1695 22.6205 48.7722 19.1787 49.8127 16.2531C50.8533 13.2702 53.5776 10.9947 56.6614 10.4593ZM57.229 14.0924C56.2074 14.3601 55.2614 14.9529 54.5803 15.7751C52.7641 17.9549 52.8398 21.5115 54.7884 23.5957C55.9425 24.8386 57.7398 25.4505 59.4047 25.1063C60.8804 24.8195 62.2048 23.8252 62.9237 22.4867C64.1534 20.1921 63.794 17.0562 61.8642 15.2779C60.6345 14.1306 58.8371 13.6717 57.229 14.0924Z" fill="#BFC6D6"/>
<path d="M73.6717 11.5678C75.8474 10.191 78.7421 9.80861 81.088 10.9941C81.8259 11.3192 82.4313 11.8737 83.0178 12.4282C83.0367 11.9119 83.0178 11.3766 83.0367 10.8412C84.3043 10.8603 85.5719 10.8412 86.8584 10.8603V27.7253C86.8395 30.2684 86.1962 32.9645 84.38 34.8193C82.3935 36.8652 79.3475 37.4962 76.6042 37.0756C73.6717 36.6358 71.1176 34.4751 69.9825 31.7407C71.1176 31.1862 72.3095 30.7464 73.4825 30.2301C74.1447 31.7981 75.488 33.1366 77.1718 33.4425C78.8556 33.7485 80.8043 33.3278 81.9016 31.9128C83.0746 30.4596 83.0745 28.471 83.0178 26.6927C82.1475 27.5532 81.1448 28.318 79.934 28.6048C77.3042 29.3506 74.4096 28.4327 72.3852 26.6353C70.342 24.8379 69.1311 22.0654 69.2446 19.3119C69.3014 16.1951 71.042 13.1931 73.6717 11.5678ZM77.588 14.0153C76.4339 14.2065 75.3555 14.8566 74.6177 15.7553C72.8393 17.8969 72.8393 21.3196 74.6366 23.423C75.6582 24.6659 77.3042 25.3542 78.8934 25.1821C80.388 25.0292 81.7691 24.0731 82.507 22.7537C83.7556 20.5165 83.5475 17.4762 81.8637 15.5259C80.8232 14.3212 79.1583 13.7285 77.588 14.0153Z" fill="#BFC6D6"/>
<path d="M98.6605 12.5441C100.931 10.4026 104.431 9.67595 107.344 10.8041C110.107 11.8558 111.866 14.5136 112.755 17.248C108.65 18.9689 104.563 20.6707 100.458 22.3916C101.025 23.4815 101.896 24.4758 103.069 24.8774C104.715 25.4702 106.682 25.2598 108.063 24.1508C108.612 23.7301 109.047 23.1756 109.463 22.6402C110.504 23.3477 111.544 24.0361 112.585 24.7435C111.109 26.9807 108.631 28.5487 105.963 28.7973C103.012 29.1606 99.8713 28.0133 97.9605 25.6805C94.8199 22.0092 95.1226 15.8521 98.6605 12.5441ZM100.685 16.0816C100.042 17.0185 99.7768 18.1658 99.7957 19.294C102.539 18.1467 105.282 16.9994 108.026 15.833C107.571 14.7622 106.474 14.1121 105.358 13.94C103.561 13.6149 101.688 14.5901 100.685 16.0816Z" fill="#BFC6D6"/>
</svg>
