<svg clip-rule="evenodd" fill-rule="evenodd" height="33.902mm" image-rendering="optimizeQuality" shape-rendering="geometricPrecision" text-rendering="geometricPrecision" viewBox="0 0 18000 3390" width="180mm" xmlns="http://www.w3.org/2000/svg"><g fill-rule="nonzero"><path d="m1343 2200c49 0 86-12 111-35 25-24 42-53 52-89s16-75 17-116 2-79 2-114v-1450-2-2-2c0-34-1-70-2-109-1-41-7-80-17-116s-28-66-52-89c-25-24-62-35-111-35h182 453 182c-43 0-77 10-102 31s-43 47-56 79c-12 32-20 66-22 103-2 36-3 70-3 102v2 2 1524c0 33 1 68 3 105s9 71 22 103c12 32 31 58 56 79s59 31 102 31h-817z" fill="#931aba"/><path d="m2272 1102c78 0 139-13 183-40 43-27 76-63 98-110 22-46 35-98 39-156s6-117 6-179c0-37-1-87-3-150s-10-125-23-187-34-116-62-164c-28-47-68-73-120-77h34c82 0 163 11 241 32 78 22 148 55 208 99 61 44 110 100 147 167s56 147 56 239c0 82-14 155-43 218s-68 116-119 160c-50 44-110 79-178 105s-140 43-216 51c99 23 181 65 247 128s123 134 173 214c49 80 93 165 130 253s76 169 116 242 85 133 134 180 111 71 185 71h-309c-41 0-83-1-125-3s-83-8-123-17-79-23-116-42-71-43-102-74c-29-29-54-73-76-131-22-59-42-123-60-194-19-71-38-143-57-218-20-74-41-142-65-204s-51-113-83-153-71-61-116-63z" fill="#c273e3"/><path d="m3838 903 82-98v-653l-81-98v-10h380c98 0 184 16 256 49 73 33 129 82 168 146 40 65 60 145 60 239 0 95-20 175-59 240-40 65-96 114-169 147s-160 49-260 49h-377v-10zm382-22c66 0 119-15 159-44 39-29 68-72 85-130 18-58 26-132 26-222 0-94-9-171-28-232-18-60-47-105-86-134s-90-44-154-44h-105v805h102zm787 47c-32 0-61-7-89-20-27-13-49-34-66-61s-25-61-25-101v-340l-68-56v-10l247-54 7 7v412c0 41 7 75 22 100 15 26 39 38 73 38 24 0 47-5 71-14s43-21 56-36v-387l-68-56v-10l247-54 6 7v513l64 67v7l-223 48-22-103c-16 17-36 33-61 49s-53 29-83 39-60 15-89 15zm860 0c-52-1-104-9-154-25s-93-42-127-78v-701l-65-62v-8l242-54 7 7v367c22-24 50-45 84-62s71-26 109-26c47 0 89 12 127 36s68 59 90 105 33 100 33 162c0 66-14 124-41 175s-67 91-120 121c-53 29-115 44-187 44zm10-22c32 0 58-12 80-34 21-23 38-55 48-97 11-41 17-90 17-146 0-85-14-151-41-197s-66-70-116-70c-36 0-67 13-94 38v434c9 23 23 40 42 53s40 19 64 19zm563 22c-31 0-59-5-84-16-24-11-43-26-57-46s-20-44-20-72c0-43 16-81 47-113 32-32 74-58 127-77s112-31 176-36v-76c0-40-12-71-35-93s-60-33-109-33c-28 0-55 3-80 10s-51 18-77 33l-8-12c33-33 73-60 121-79 48-20 99-29 155-29s100 9 132 26 54 41 67 72 19 69 19 113v307l63 67v7l-222 48-21-92c-26 28-56 51-89 67-34 17-69 25-105 25zm102-88c35 0 64-9 88-28v-222c-54 9-96 27-127 54s-46 61-46 102c0 30 7 52 21 69 14 16 36 25 64 25zm556-639c-20 0-37-4-53-12s-28-20-37-34c-9-15-13-32-13-51 0-18 4-35 13-50s21-27 37-35 33-13 53-13 38 4 54 13c16 8 28 20 37 35s13 31 13 50c0 29-10 52-29 70-20 18-45 27-75 27zm-159 703 75-75v-423l-68-56v-10l247-54 6 7v536l74 76v9h-334v-9zm659-1 82-98v-654l-82-98v-10h403c76 0 140 11 191 32 52 21 90 51 116 88 26 38 38 81 38 131 0 54-14 102-43 142-28 40-70 71-125 93s-122 33-200 33h-46v-32h32c31 0 59-8 85-25s46-43 61-78c15-36 23-80 23-133 0-72-16-127-48-163-32-37-82-55-149-55h-56v729l95 98v10h-375v-10zm790 1 75-75v-709l-57-56v-10l235-54 7 7v822l74 76v9h-334v-9zm547 24c-31 0-59-5-84-16-24-11-43-26-57-46s-20-44-20-72c0-43 16-81 47-113 32-32 74-58 127-77s112-31 176-36v-76c0-40-12-71-35-93s-60-33-109-33c-28 0-55 3-80 10s-51 18-77 33l-8-12c33-33 73-60 121-79 48-20 99-29 155-29s100 9 132 26 54 41 67 72 19 69 19 113v307l63 67v7l-222 48-21-92c-26 28-56 51-89 67-34 17-69 25-105 25zm102-88c35 0 64-9 88-28v-222c-54 9-96 27-127 54s-46 61-46 102c0 30 7 52 21 69 14 16 36 25 64 25zm626 88c-40 0-81-5-125-14s-78-20-102-33l39-165h12c17 37 37 73 60 109s46 61 69 76c19 3 36 5 51 5 41 0 71-9 90-27 18-18 27-41 27-69 0-19-6-36-17-51-11-14-26-27-44-38s-43-24-74-38l-36-18c-34-16-63-32-87-49s-44-37-60-62c-16-24-24-53-24-86 0-60 24-105 70-136 47-31 110-46 189-46 30 0 62 3 98 10 35 7 67 15 94 25l-27 160h-10c-27-44-51-78-69-104-19-26-37-47-54-63-7-2-19-4-34-4-34 0-60 9-78 26-18 18-27 39-27 66 0 25 10 46 29 64s48 36 85 54l44 21c35 17 66 34 91 51s47 38 64 63 26 54 26 87c0 40-12 74-35 102-24 28-56 49-97 63s-87 21-139 21zm571 0c-34 0-65-6-92-19s-48-32-64-58-24-57-24-94v-432h-77v-7l251-164h11v148h184v23h-184v432c0 32 7 56 21 73s34 25 61 25c22 0 44-3 63-8 20-5 36-13 50-23l6 9c-22 27-51 50-86 68-36 18-76 27-120 27zm386-727c-20 0-37-4-53-12s-28-20-37-34c-9-15-13-32-13-51 0-18 4-35 13-50s21-27 37-35 33-13 53-13 38 4 54 13c16 8 28 20 37 35s13 31 13 50c0 29-10 52-29 70-20 18-45 27-75 27zm-159 703 75-75v-423l-68-56v-10l247-54 6 7v536l74 76v9h-334v-9zm667 24c-57 0-108-13-153-38-44-25-79-62-104-108-25-47-37-100-37-161 0-66 15-124 44-175s70-90 122-118 111-42 177-42c33 0 69 4 106 11s68 15 91 24l-28 180h-12c-25-45-47-82-66-111-19-30-38-55-57-75 0 0-4-1-11-2-7-2-15-2-24-2-47 1-84 25-109 71s-38 108-38 186c0 55 8 102 23 142s38 70 67 91 64 32 104 32c32 0 64-6 95-16 31-11 56-25 75-42l8 8c-29 47-66 84-112 110s-100 39-163 39zm901 0c-49 0-97-5-144-15s-88-22-122-36l-14-240h9c31 86 70 150 117 194 46 43 99 65 160 65 52 0 93-12 121-37 29-25 43-62 43-112 0-28-8-53-25-76s-39-43-66-62-64-40-109-65l-36-19c-43-23-80-46-111-69s-56-50-77-81c-20-31-30-67-30-106 0-52 14-96 42-132s67-62 116-80c50-18 106-26 170-26 39 0 80 5 123 15s82 22 116 37l18 240h-8c-30-83-67-147-111-191-44-45-98-67-162-67-28 0-52 5-72 16s-36 26-47 45-16 42-16 67c0 26 6 48 20 68 13 19 31 36 53 51s52 31 90 50l45 22c49 24 91 49 127 75s65 58 88 94 34 78 34 125c0 57-15 104-45 142s-70 65-121 83-109 27-173 27zm633 0c-32 0-61-7-89-20-27-13-49-34-66-61s-25-61-25-101v-340l-68-56v-10l247-54 7 7v412c0 41 7 75 22 100 15 26 39 38 73 38 24 0 47-5 71-14s43-21 56-36v-387l-68-56v-10l247-54 6 7v513l64 67v7l-223 48-22-103c-16 17-36 33-61 49s-53 29-83 39-60 15-89 15zm535-24 75-75v-423l-68-57v-10l247-54 6 7v109c13-21 30-40 53-58 22-18 47-32 73-42 26-11 52-16 76-16 20 0 38 3 53 9l-32 194h-9c-14-19-26-34-38-47-12-12-25-23-41-32s-34-14-54-14c-16 0-31 4-46 11-14 7-26 17-35 28v393l77 76v9h-336v-9zm849 268c-104 0-182-11-235-32s-80-50-80-87c0-25 11-48 33-68s53-37 92-51c-26-9-46-24-59-42s-19-39-19-63c0-33 10-62 30-86 20-25 47-48 80-69-38-20-66-46-86-76-20-31-30-65-30-102 0-42 13-79 38-111s59-57 102-74 89-26 140-26c65 0 123 15 173 45l166-102 7 2 1 129-137-7c23 19 40 41 52 66s18 51 18 79c0 41-12 77-36 109s-57 57-99 76c-42 18-91 28-144 28-52 0-98-9-140-26-25 17-37 36-37 59 0 14 4 25 12 32 8 8 19 13 35 15 15 2 36 4 62 4h178c80 0 141 14 184 43s64 73 64 132c0 41-15 76-45 107s-72 54-127 71-119 25-192 25zm6-489c33 0 56-15 71-45s23-77 23-140-7-110-23-140c-15-31-39-46-71-46-34 0-58 15-73 46-14 31-22 77-22 141 0 63 7 109 22 140 15 30 39 45 72 45zm8 462c75 0 131-9 169-28s57-46 57-82c0-29-11-49-34-61-22-11-55-17-97-17-12 0-32 0-60 1-30 1-53 1-69 1-62 0-111-5-146-14-11 11-20 23-26 35-7 12-10 26-10 41 0 42 19 73 56 93s91 31 160 31zm770-316c34 0 66-6 96-17s55-25 74-42l9 8c-30 48-68 85-113 111s-99 38-162 38c-59 0-111-13-155-39-45-26-79-63-104-110-24-47-37-101-37-161 0-65 13-122 40-173 26-50 63-90 111-117 48-28 102-42 162-42 56 0 105 12 146 37s72 58 94 101c21 43 32 90 32 142h-395v16c0 49 8 92 24 130 16 37 39 66 70 86s66 31 108 31zm-88-517c-40 0-69 25-85 74s-26 104-29 163l212-13c0-78-8-135-24-170s-41-53-75-53zm311 592 75-75v-423l-68-57v-10l247-54 6 7v109c13-21 30-40 53-58 22-18 47-32 73-42 26-11 52-16 76-16 20 0 38 3 53 9l-32 194h-9c-14-19-26-34-38-47-12-12-25-23-41-32s-34-14-54-14c-16 0-31 4-46 11-14 7-26 17-35 28v393l77 76v9h-336v-9zm569 174 5-12c7-2 21-3 41-5 28-2 52-5 73-8s42-9 62-18c21-8 37-20 50-36l25-54-238-560-65-76v-10h334v10l-64 76 131 343 138-343-65-76v-10h163v10l-73 77-231 549c-27 63-53 115-80 155s-51 70-72 89-39 31-54 36l-81-138z" fill="#931aba"/><g fill="#720696"><path d="m4300 2236c-88 0-166-19-235-57s-123-90-161-157c-39-67-58-143-58-228 0-88 19-167 56-235 38-69 91-123 160-162s150-59 242-59c46 0 92 4 138 11 46 8 95 21 147 40l18 245h-13c-24-79-59-142-105-191s-105-73-179-73c-55 0-101 17-138 52-38 35-66 84-84 147-19 63-28 137-28 222s10 158 30 220 50 109 88 143c38 33 84 50 137 50 69 0 126-25 173-74 46-49 82-113 106-191h13l-18 246c-53 19-102 33-146 40s-91 11-142 11zm379-24 75-75v-709l-57-56v-10l235-54 7 7v822l74 76v9h-334v-9zm540-703c-20 0-37-4-53-12s-28-20-37-34c-9-15-13-32-13-51 0-18 4-35 13-50s21-27 37-35 33-13 53-13 38 4 54 13c16 8 28 20 37 35s13 31 13 50c0 29-10 52-29 70-20 18-45 27-75 27zm-158 703 75-75v-423l-68-56v-10l247-54 6 7v536l74 76v9h-334v-9zm381 0 75-75v-423l-68-57v-10l247-54 6 7v91c29-30 62-53 100-71 37-18 77-27 119-27 36 0 68 8 97 23s51 36 68 63c16 27 25 58 25 92v365l74 76v9h-330v-9l71-75v-357c0-33-9-60-27-79s-44-29-77-29c-23 0-45 4-65 12s-38 20-53 36v416l71 76v9h-330v-9zm947-703c-20 0-37-4-53-12s-28-20-37-34c-9-15-13-32-13-51 0-18 4-35 13-50s21-27 37-35 33-13 53-13 38 4 54 13c16 8 28 20 37 35s13 31 13 50c0 29-10 52-29 70-20 18-45 27-75 27zm-159 703 75-75v-423l-68-56v-10l247-54 6 7v536l74 76v9h-334v-9zm667 24c-57 0-108-13-153-38-44-25-79-62-104-108-25-47-37-100-37-161 0-66 15-124 44-175s70-90 122-118 111-42 177-42c33 0 69 4 106 11s68 15 91 24l-28 180h-12c-25-45-47-82-66-111-19-30-38-55-57-75 0 0-4-1-11-2-7-2-15-2-24-2-47 1-84 25-109 71s-38 108-38 186c0 55 8 102 23 142s38 70 67 91 64 32 104 32c32 0 64-6 95-16 31-11 56-25 75-42l8 8c-29 47-66 84-112 110s-100 39-163 39zm931 0c-52-1-104-9-154-25s-93-42-127-78v-701l-65-62v-8l242-54 7 7v367c22-24 50-45 84-62s71-26 109-26c47 0 89 12 127 36s68 59 90 105 33 100 33 162c0 66-14 124-41 175s-67 91-120 121c-53 29-115 44-187 44zm10-22c32 0 58-12 80-34 21-23 38-55 48-97 11-41 17-90 17-146 0-85-14-151-41-197s-66-70-116-70c-36 0-67 13-94 38v434c9 23 23 40 42 53s40 19 64 19zm382 173 5-12c7-2 21-3 41-5 28-2 52-5 73-8s42-9 62-18c21-8 37-20 50-36l25-54-238-560-65-76v-10h334v10l-64 76 131 343 138-343-65-76v-10h163v10l-73 77-231 549c-27 63-53 115-80 155s-51 70-72 89-39 31-54 36l-81-138zm2963-175 82-98v-653l-82-98v-10h413c74 0 136 9 186 27 51 18 89 44 114 77 26 33 38 72 38 116 0 73-26 129-79 168s-120 64-202 74v4c37 10 78 17 123 21l172 286 98 86v10h-280l-195-399c-11 1-22 2-34 2h-33v-33h40c62 0 107-19 135-57s43-91 43-157c0-63-14-111-44-144-29-33-77-49-145-49h-69v729l82 98v10h-363zm1074-702c-20 0-37-4-53-12s-28-20-37-34c-9-15-13-32-13-51 0-18 4-35 13-50s21-27 37-35 33-13 53-13 38 4 54 13c16 8 28 20 37 35s13 31 13 50c0 29-10 52-29 70-20 18-45 27-75 27zm-159 703 75-75v-423l-68-56v-10l247-54 6 7v536l74 76v9h-334v-9zm546 24c-31 0-59-5-84-16-24-11-43-26-57-46s-20-44-20-72c0-43 16-81 47-113 32-32 74-58 127-77s112-31 176-36v-76c0-40-12-71-35-93s-60-33-109-33c-28 0-55 3-80 10s-51 18-77 33l-8-12c33-33 73-60 121-79 48-20 99-29 155-29s100 9 132 26 54 41 67 72 19 69 19 113v307l63 67v7l-222 48-21-92c-26 28-56 51-89 67-34 17-69 25-105 25zm102-88c35 0 64-9 88-28v-222c-54 9-96 27-127 54s-46 62-46 102c0 30 7 52 21 69 14 16 36 25 64 25zm629 88c-49 0-91-12-128-37s-65-60-84-105c-20-45-30-96-30-154 0-67 13-127 40-179 27-53 66-94 116-123 50-30 108-44 174-44 44 0 82 11 116 32v-197l-57-57v-10l234-54 8 7v798l63 67v7l-222 48-22-96c-29 29-59 52-92 69-33 18-71 26-115 26zm102-85c37 0 72-12 102-38v-390c-5-34-16-59-33-77-17-17-38-26-63-26-32 0-60 11-83 33s-41 53-53 94-19 91-19 148c0 83 13 146 39 190s62 66 110 66zm681 60 82-98v-653l-82-98v-10h413c74 0 136 9 186 27 51 18 89 44 114 77 26 33 38 72 38 116 0 73-26 129-79 168s-120 64-202 74v4c37 10 78 17 123 21l172 286 98 86v10h-280l-195-399c-11 1-22 2-34 2h-33v-33h40c62 0 107-19 135-57s43-91 43-157c0-63-14-111-44-144-29-33-77-49-145-49h-69v729l82 98v10h-363zm1186 25c-63 0-119-14-170-41-51-28-90-66-119-115s-44-104-44-165c0-60 14-115 44-164 29-49 69-87 120-115s107-42 169-42c63 0 119 14 170 42s91 66 120 115 44 104 44 164c0 61-14 116-44 165-29 49-69 87-119 115-51 27-107 41-170 41zm1-22c44 0 78-26 103-78 24-52 36-125 36-221 0-95-12-168-36-220s-58-78-103-78-79 26-103 78-35 125-35 220c0 96 12 170 36 221 24 52 58 77 103 77zm739 22c-63 0-119-14-170-41-51-28-90-66-119-115s-44-104-44-165c0-60 14-115 44-164 29-49 69-87 120-115s107-42 169-42c63 0 119 14 170 42s91 66 120 115 44 104 44 164c0 61-14 116-44 165-29 49-69 87-119 115-51 27-107 41-170 41zm1-22c44 0 78-26 103-78 24-52 36-125 36-221 0-95-12-168-36-220s-58-78-103-78-79 26-103 78-35 125-35 220c0 96 12 170 36 221 24 52 58 77 103 77zm370-1 75-75v-423l-68-56v-10l245-54 7 7v92c24-28 55-51 91-70 37-19 75-28 116-28 37 0 70 8 100 25s53 45 70 84c27-31 58-56 95-77s77-31 122-31c31 0 60 6 88 19 27 13 50 33 67 60s26 62 26 103v360l74 76v9h-329v-9l71-76v-361c0-32-8-57-24-76s-40-28-71-28c-21 0-41 5-61 14s-37 22-51 38c3 20 4 40 4 60v352l71 76v9h-326v-9l71-76v-360c0-32-8-57-24-76s-39-28-69-28c-20 0-40 4-60 13s-37 21-50 36v415l71 76v9h-330v-9zm1314-703c-20 0-37-4-53-12s-28-20-37-34c-9-15-13-32-13-51 0-18 4-35 13-50s21-27 37-35 33-13 53-13 38 4 54 13c16 8 28 20 37 35s13 31 13 50c0 29-10 52-29 70-20 18-45 27-75 27zm-159 703 75-75v-423l-68-56v-10l247-54 6 7v536l74 76v9h-334v-9z"/><path d="m9116 2211 82-98v-653l-81-98v-10h380c98 0 184 16 256 49 73 33 129 82 168 146 40 65 60 145 60 239 0 95-20 175-59 240-40 65-96 114-169 147s-160 49-260 49h-377v-10zm382-22c66 0 119-15 159-44 39-29 68-72 85-130 18-58 26-132 26-222 0-94-9-172-28-232-18-60-47-105-86-134s-90-44-154-44h-105v805h102zm544 24 75-75v-423l-68-57v-10l247-54 6 7v109c13-21 30-40 53-58 22-18 47-32 73-42 26-11 52-16 76-16 20 0 38 3 53 9l-32 194h-9c-14-19-26-34-38-47-12-12-25-23-41-32s-34-14-54-14c-16 0-31 4-46 11-14 7-26 17-35 28v393l77 76v9h-336v-9zm686 24c-20 0-38-4-54-13s-28-21-38-36c-9-15-14-33-14-53 0-19 5-37 13-52 9-15 21-27 37-36s34-13 54-13 38 4 54 13 28 21 37 36 13 33 13 52c0 30-10 54-29 73-20 19-45 28-76 28z"/><path d="m1232 1139c-78 0-139 13-183 40-43 27-76 63-98 110-22 46-35 98-39 156s-6 117-6 179c0 37 1 87 3 150s10 125 23 187c14 62 34 116 62 164 28 47 68 73 120 77h-34c-82 0-163-11-241-32-78-22-148-55-208-99-61-44-110-100-147-167s-56-147-56-239c0-82 14-155 43-218s68-116 119-160c50-44 110-79 178-105s140-43 216-51c-99-23-181-65-247-128s-124-134-173-214-93-165-130-253-76-169-116-242-85-133-134-180-111-71-185-71h309c41 0 83 1 125 3s83 8 124 17c40 9 79 23 116 42 37 18 71 43 102 74 29 29 54 73 76 131 22 59 42 123 60 194 19 71 38 143 57 218 20 74 41 142 65 204s51 113 83 153 71 61 116 63z"/><path d="m4341 3012c0 74-18 131-55 172s-89 61-156 61c-68 0-121-20-157-61-36-40-55-98-55-173s18-132 55-172 89-60 157-60c67 0 119 20 156 61s55 98 55 171zm-345 0c0 56 11 98 34 126 22 29 56 43 100 43s77-14 99-43c22-28 33-71 33-127 0-55-11-97-33-126s-55-43-99-43-78 14-100 43-34 71-34 126zm603 233c-43 0-77-16-101-47h-4c3 29 4 46 4 53v140h-73v-494h59c2 6 5 22 10 46h4c23-35 57-52 102-52 43 0 76 16 100 46 24 31 36 74 36 130s-12 99-36 131c-24 31-58 47-100 47zm-18-295c-29 0-50 8-63 25s-20 44-20 81v11c0 42 7 72 20 90 13 19 35 28 65 28 25 0 45-10 58-31 14-21 20-50 20-88s-7-67-20-87c-14-20-33-30-59-30zm383 295c-53 0-95-16-125-47s-45-74-45-128c0-56 14-100 42-132s66-48 115-48c45 0 81 14 107 41s39 65 39 113v39h-228c1 33 10 59 27 76 17 18 41 27 71 27 20 0 39-2 56-6s36-10 56-19v59c-18 8-36 14-54 18-18 3-39 5-62 5zm-13-299c-23 0-42 7-55 22-14 15-22 36-25 64h155c0-28-7-50-20-64-13-15-31-22-54-22zm398-55c15 0 27 1 36 3l-7 68c-10-2-21-4-32-4-29 0-53 9-71 28s-27 44-27 74v179h-73v-342h57l10 60h4c11-20 26-37 44-49s38-18 59-18zm296 348-15-47h-2c-16 21-33 35-50 43-17 7-38 11-64 11-34 0-60-9-79-27s-28-44-28-77c0-35 13-62 39-80s66-28 119-29l59-2v-18c0-22-5-38-15-49s-26-16-47-16c-18 0-34 3-50 8s-32 11-46 18l-23-52c18-10 39-17 61-22s43-8 62-8c44 0 76 9 98 28s33 49 33 89v230zm-108-49c26 0 48-7 63-22 16-15 24-35 24-62v-30l-44 2c-34 1-59 7-75 17s-23 26-23 47c0 15 5 27 14 35s23 13 41 13zm384-3c18 0 35-3 53-8v55c-8 3-18 6-31 9-13 2-26 4-39 4-69 0-103-36-103-109v-184h-47v-32l50-27 25-72h45v76h97v55h-97v183c0 18 4 30 13 39 9 8 20 13 34 13zm266 59c-53 0-95-16-125-47s-45-74-45-128c0-56 14-100 42-132s66-48 115-48c45 0 81 14 107 41s39 65 39 113v39h-228c1 33 10 59 27 76 17 18 41 27 71 27 20 0 39-2 56-6s36-10 56-19v59c-18 8-36 14-54 18-18 3-39 5-62 5zm-13-299c-23 0-42 7-55 22-14 15-22 36-25 64h155c0-28-7-50-20-64-13-15-31-22-54-22zm340 299c-43 0-76-16-100-46-24-31-36-74-36-130s12-100 36-131 58-47 101-47c45 0 79 17 103 50h4c-3-24-5-44-5-58v-125h73v481h-57l-13-45h-3c-23 34-57 51-102 51zm19-59c30 0 52-8 65-25 14-17 21-44 21-82v-10c0-43-7-74-21-92s-36-27-66-27c-26 0-45 10-59 31s-21 50-21 89c0 38 7 67 20 87s33 30 60 30zm594-295c43 0 76 16 100 46 24 31 36 74 36 130s-12 100-36 131-58 47-100 47c-43 0-77-16-101-47h-5l-13 40h-54v-481h73v114c0 8 0 21-1 38s-1 27-2 32h3c23-34 57-51 102-51zm-19 59c-29 0-50 9-63 26s-20 46-20 86v5c0 42 7 72 20 90 13 19 35 28 65 28 26 0 45-10 59-31 13-20 20-50 20-88 0-78-27-116-80-116zm170-53h79l69 194c10 28 18 53 21 78h2c2-11 5-25 10-41s31-93 78-230h78l-146 387c-27 71-71 107-133 107-16 0-32-2-47-5v-57c11 2 23 4 37 4 35 0 60-20 74-61l13-32-137-342zm687 96 107-206h80l-151 277v175h-74v-173l-150-279h80l107 206zm506 74c0 56-14 99-43 131-29 31-69 47-120 47-32 0-60-7-85-22-25-14-43-35-57-62-13-27-20-58-20-94 0-55 14-99 43-130 28-31 69-47 120-47 49 0 89 16 117 48 29 32 43 75 43 129zm-249 0c0 79 29 118 87 118s87-39 87-118c0-78-29-117-87-117-31 0-53 10-66 30-14 20-21 49-21 87zm569 171-10-45h-4c-10 16-24 28-43 37s-40 14-64 14c-41 0-72-10-93-31-20-21-31-52-31-94v-223h73v211c0 26 5 46 16 59s28 20 50 20c30 0 53-9 67-27s22-49 22-92v-170h73v342h-57zm705 0h-91l-222-360h-3l2 20c3 38 4 73 4 105v235h-67v-452h90l221 358h2c0-5-1-22-2-52s-2-53-2-70v-237h68v452zm257 6c-53 0-95-16-125-47s-45-74-45-128c0-56 14-100 42-132s66-48 115-48c45 0 81 14 107 41s39 65 39 113v39h-228c1 33 10 59 27 76 17 18 41 27 71 27 20 0 39-2 56-6s36-10 56-19v59c-18 8-36 14-54 18-18 3-39 5-62 5zm-13-299c-23 0-42 7-55 22-14 15-22 36-25 64h155c0-28-7-50-20-64-13-15-31-22-54-22zm492 293-44-159c-5-17-15-56-29-118h-3c-12 56-21 95-28 118l-45 159h-80l-96-342h74l44 168c10 42 17 77 21 107h2c2-15 5-32 9-52 4-19 8-34 11-44l52-180h80l50 180c3 10 7 26 12 46 5 21 7 37 8 49h3c3-25 10-61 22-106l44-168h73l-96 342h-82zm703-315c0 47-15 83-46 108s-75 38-132 38h-47v169h-74v-452h130c56 0 99 12 127 35s42 57 42 102zm-225 84h39c38 0 66-7 83-20 18-13 26-34 26-62 0-26-8-45-24-58s-41-19-74-19h-51v159zm376 231h-73v-481h73zm313 0-15-47h-2c-16 21-33 35-50 43-17 7-38 11-64 11-34 0-60-9-79-27s-28-44-28-77c0-35 13-62 39-80s66-28 119-29l59-2v-18c0-22-5-38-15-49s-26-16-47-16c-18 0-34 3-50 8s-32 11-46 18l-23-52c18-10 39-17 61-22s43-8 62-8c44 0 76 9 98 28s33 49 33 89v230zm-108-49c26 0 48-7 63-22 16-15 24-35 24-62v-30l-44 2c-34 1-59 7-75 17s-23 26-23 47c0 15 5 27 14 35s23 13 41 13zm487-48c0 33-12 59-36 77s-59 27-104 27c-46 0-82-7-110-21v-63c40 19 78 28 112 28 45 0 67-13 67-40 0-9-2-16-7-22s-13-12-24-18-27-13-47-21c-39-15-66-30-80-46-14-15-21-35-21-59 0-29 12-52 35-68 24-16 56-24 96-24s78 8 114 24l-24 55c-37-15-68-23-93-23-38 0-57 11-57 33 0 11 5 20 15 27s32 18 65 31c28 11 49 21 61 30 13 9 22 20 28 31 6 12 9 26 9 43zm201 45c18 0 35-3 53-8v55c-8 3-18 6-31 9-13 2-26 4-39 4-69 0-103-36-103-109v-184h-47v-32l50-27 25-72h45v76h97v55h-97v183c0 18 4 30 13 39 9 8 20 13 34 13zm190 53h-73v-342h73zm-77-432c0-13 3-23 11-30 7-7 17-11 30-11s23 3 30 11c7 7 11 17 11 30 0 12-4 22-11 29s-17 11-30 11-23-4-30-11-11-17-11-29zm314 439c-52 0-91-15-118-45s-40-74-40-130c0-58 14-102 42-133s69-46 122-46c36 0 68 7 97 20l-22 59c-31-12-56-18-76-18-59 0-89 39-89 118 0 38 7 67 22 86s36 29 65 29c32 0 63-8 92-24v63c-13 8-27 13-42 16s-33 5-54 5zm604-129c0 40-14 72-44 95-29 23-69 34-120 34s-93-8-125-24v-70c21 10 42 17 66 23 23 6 45 8 65 8 29 0 51-6 65-17s21-26 21-45c0-17-6-31-19-43s-39-26-79-42c-41-17-70-36-87-57s-25-47-25-77c0-38 13-67 40-89s63-32 108-32c43 0 86 10 129 28l-24 60c-40-17-76-25-108-25-24 0-42 5-54 16-12 10-19 24-19 41 0 12 3 22 7 30 5 8 13 16 24 24 11 7 32 17 61 29 33 14 57 27 73 39s27 26 34 41 11 33 11 53zm317 123-10-45h-4c-10 16-24 28-43 37s-40 14-64 14c-41 0-72-10-93-31-20-21-31-52-31-94v-223h73v211c0 26 5 46 16 59s28 20 50 20c30 0 53-9 67-27s22-49 22-92v-170h73v342h-57zm330-348c15 0 27 1 36 3l-7 68c-10-2-21-4-32-4-29 0-53 9-71 28s-27 44-27 74v179h-73v-342h57l10 60h4c11-20 26-37 44-49s38-18 59-18zm378 6v40l-58 11c5 7 10 16 13 27s5 22 5 33c0 35-12 63-36 83s-58 30-100 30c-11 0-21-1-30-2-16 10-23 21-23 34 0 8 4 14 11 18s21 6 40 6h60c38 0 66 8 86 24s29 39 29 70c0 39-16 68-48 89s-78 32-138 32c-47 0-82-8-107-25-24-16-37-40-37-70 0-21 7-39 20-53s32-24 56-30c-10-4-18-11-24-20s-9-19-9-29c0-13 4-24 11-32 7-9 18-18 32-26-18-8-32-20-43-37s-16-37-16-60c0-37 12-66 35-86s57-31 100-31c10 0 20 1 30 2 11 1 19 3 24 4h118zm-268 395c0 16 7 28 21 36s34 13 59 13c40 0 69-6 88-17s29-26 29-45c0-15-5-25-16-32-11-6-30-9-59-9h-55c-21 0-37 5-50 15-12 10-18 23-18 40zm31-284c0 21 6 38 17 49 11 12 27 17 47 17 42 0 63-22 63-67 0-22-5-39-16-51-10-12-26-18-47-18s-37 6-48 18-16 29-16 52zm446 238c-53 0-95-16-125-47s-45-74-45-128c0-56 14-100 42-132s66-48 115-48c45 0 81 14 107 41s39 65 39 113v39h-228c1 33 10 59 27 76 17 18 41 27 71 27 20 0 39-2 56-6s36-10 56-19v59c-18 8-36 14-54 18-18 3-39 5-62 5zm-13-299c-23 0-42 7-55 22-14 15-22 36-25 64h155c0-28-7-50-20-64-13-15-31-22-54-22zm398-55c15 0 27 1 36 3l-7 68c-10-2-21-4-32-4-29 0-53 9-71 28s-27 44-27 74v179h-73v-342h57l10 60h4c11-20 26-37 44-49s38-18 59-18zm43 6h79l69 194c10 28 18 53 21 78h2c2-11 5-25 10-41s31-93 78-230h78l-146 387c-27 71-71 107-133 107-16 0-32-2-47-5v-57c11 2 23 4 37 4 35 0 60-20 74-61l13-32-137-342zm751-53c-42 0-76 15-100 45s-36 72-36 124c0 55 12 97 35 126 23 28 57 43 101 43 19 0 38-2 56-6s37-9 56-15v63c-35 13-76 20-120 20-66 0-117-20-152-60s-53-97-53-172c0-47 9-88 26-123s42-62 75-81 71-28 115-28c46 0 89 10 128 29l-27 61c-15-7-31-14-48-19s-35-8-54-8zm270 395h-73v-481h73zm172 0h-73v-342h73zm-77-432c0-13 3-23 11-30 7-7 17-11 30-11s23 3 30 11c7 7 11 17 11 30 0 12-4 22-11 29s-17 11-30 11-23-4-30-11-11-17-11-29zm477 432h-73v-210c0-26-5-46-16-59s-28-20-51-20c-31 0-53 9-67 27s-21 49-21 91v170h-73v-342h57l10 45h4c10-16 25-29 44-38s40-13 63-13c82 0 123 42 123 125v223zm169 0h-73v-342h73zm-77-432c0-13 3-23 11-30 7-7 17-11 30-11s23 3 30 11c7 7 11 17 11 30 0 12-4 22-11 29s-17 11-30 11-23-4-30-11-11-17-11-29zm314 439c-52 0-91-15-118-45s-40-74-40-130c0-58 14-102 42-133s69-46 122-46c36 0 68 7 97 20l-22 59c-31-12-56-18-76-18-59 0-89 39-89 118 0 38 7 67 22 86s36 29 65 29c32 0 63-8 92-24v63c-13 8-27 13-42 16s-33 5-54 5zm343-6v-452h74v389h191v63zm339 0v-452h74v389h191v63zm518-395c-42 0-76 15-100 45s-36 72-36 124c0 55 12 97 35 126 23 28 57 43 101 43 19 0 38-2 56-6s37-9 56-15v63c-35 13-76 20-120 20-66 0-117-20-152-60s-53-97-53-172c0-47 9-88 26-123s42-62 75-81 71-28 115-28c46 0 89 10 128 29l-27 61c-15-7-31-14-48-19s-35-8-54-8z"/></g></g></svg>